<svg xmlns="http://www.w3.org/2000/svg" xmlns:xlink="http://www.w3.org/1999/xlink" viewBox="0 0 1024 1024"><defs><style>.cls-1{fill:none;}.cls-2{fill:url(#未命名的渐变_5);}</style><linearGradient id="未命名的渐变_5" x1="15.09" y1="512.19" x2="1008.49" y2="512.19" gradientUnits="userSpaceOnUse"><stop offset="0" stop-color="#6fb1fc"/><stop offset="0.31" stop-color="#4364f7"/><stop offset="1" stop-color="#0052d4"/></linearGradient></defs><title>资源 1</title><g id="图层_2" data-name="图层 2"><g id="图层_1-2" data-name="图层 1"><rect class="cls-1" width="1024" height="1024"/><path class="cls-2" d="M724.46,29.31,731.63.39H313.73c-72,0-145.11,58.58-163,130.58l-5.4,21.76H570.44C638.5,152.73,707.59,97.36,724.46,29.31Zm200.95,307L1008.49,1.11H980.43c-72,0-145.1,58.58-162.95,130.59L734.4,466.85h28.05C834.46,466.85,907.56,408.28,925.41,336.27ZM867.54,485c-38.61,0-78.15,14.73-111.33,41.46-31,25-52.67,57.72-61,92.17l-.3,1.25-1.84,10.51C660.18,761.2,520.53,867.5,381.34,867.5c-139.48,0-226.51-106.74-194-238l39.4-158.95c12.54-50.58,66.83-91.73,121-91.73H479.66c77.89,0,156.25-60.44,174.67-134.73l5.39-21.76H269.94c-78.2,0-156.86,60.67-175.35,135.25L26.51,632.26c-26,104.87-7.29,203.39,52.68,277.43C138.89,983.4,232.42,1024,342.55,1024s223.78-40.6,320-114.31c96.67-74,164.23-172.56,190.22-277.43L889.31,485Z"/></g></g></svg>